# AST/ASF file generated using VICON BodyLanguage
# -----------------------------------------------
:version 1.10
:name VICON
:units
  mass 1.0
  length 0.45
  angle deg
:documentation
   .ast/.asf automatically generated from VICON data using
   VICON BodyBuilder and BodyLanguage model FoxedUp or BRILLIANT.MOD
:root
   order TX TY TZ RX RY RZ
   axis XYZ
   position 0 0 0  
   orientation 0 0 0 
:bonedata
  begin
     id 1 
     name lhipjoint
     direction 0.692814 -0.645514 0.321437 
     length 2.38754 
     axis 0 0 0  XYZ
  end
  begin
     id 2 
     name lfemur
     direction 0.34202 -0.939693 0  
     length 6.41921  
     axis 0 0 20  XYZ
    dof rx ry rz
    limits (-160.0 20.0)
           (-70.0 70.0)
           (-60.0 70.0)
  end
  begin
     id 3 
     name ltibia
     direction 0.34202 -0.939693 0   
     length 6.98247   
     axis 0 0 20   XYZ
    dof rx
    limits (-10.0 170.0)
  end
  begin
     id 4 
     name lfoot
     direction 0.0947186 -0.260237 0.960888   
     length 1.83034   
     axis -90 7.62852e-016 20   XYZ
    dof rx rz
    limits (-45.0 90.0)
           (-70.0 20.0)
  end
  begin
     id 5 
     name ltoes
     direction 1.53538e-011 -4.21952e-011 1   
     length 0.920499   
     axis -90 7.62852e-016 20   XYZ
    dof rx
    limits (-90.0 20.0)
  end
  begin
     id 6 
     name rhipjoint
     direction -0.631686 -0.693949 0.345555   
     length 2.2209  
     axis 0 0 0  XYZ 
  end
  begin
     id 7 
     name rfemur
     direction -0.34202 -0.939693 0   
     length 6.49542   
     axis 0 0 -20   XYZ
    dof rx ry rz
    limits (-160.0 20.0)
           (-70.0 70.0)
           (-70.0 60.0)
  end
  begin
     id 8 
     name rtibia
     direction -0.34202 -0.939693 0   
     length 7.21712   
     axis 0 0 -20   XYZ
    dof rx
    limits (-10.0 170.0)
 end
 begin
     id 9 
     name rfoot
     direction -0.0825378 -0.226771 0.970444   
     length 1.89724  
     axis -90 -7.62852e-016 -20   XYZ
    dof rx rz
    limits (-45.0 90.0)
           (-20.0 70.0)
  end
  begin
     id 10 
     name rtoes
     direction -1.53515e-011 -4.22016e-011 1   
     length 0.955868   
     axis -90 -7.62852e-016 -20   XYZ
    dof rx
    limits (-90.0 20.0)
  end
  begin
     id 11 
     name lowerback
     direction -0.0104711 0.984802 -0.173368   
     length 1.84931   
     axis 0 0 0   XYZ
    dof rx ry rz
    limits (-20.0 45.0)
           (-30.0 30.0)
           (-30.0 30.0)
  end
  begin
     id 12 
     name upperback
     direction -0.00286433 0.999996 -0.000382853   
     length 1.85768   
     axis 0 0 0   XYZ
    dof rx ry rz
    limits (-20.0 45.0)
           (-30.0 30.0)
           (-30.0 30.0)
  end
  begin
     id 13 
     name thorax
     direction 0.00167534 0.996793 0.0800069   
     length 1.92   
     axis 0 0 0   XYZ
    dof rx ry rz
    limits (-20.0 45.0)
           (-30.0 30.0)
           (-30.0 30.0)
  end
  begin
     id 14 
     name lowerneck
     direction -0.0672491 0.995415 0.068018   
     length 1.58923   
     axis 0 0 0   XYZ
    dof rx ry rz
    limits (-20.0 45.0)
           (-30.0 30.0)
           (-30.0 30.0)
  end
  begin
     id 15 
     name upperneck
     direction 0.0958019 0.982476 -0.159884   
     length 1.60189   
     axis 0 0 0   XYZ
    dof rx ry rz
    limits (-20.0 45.0)
           (-30.0 30.0)
           (-30.0 30.0)
  end
  begin
     id 16
     name head
     direction 0.032989 0.997338 -0.0650226  
     length 1.61681  
     axis 0 0 0   XYZ
    dof rx ry rz
    limits (-20.0 45.0)
           (-30.0 30.0)
           (-30.0 30.0)
  end
  begin
     id 17 
     name lclavicle
     direction 0.954279 0.298875 -0.00496069  
     length 2.99449  
     axis 0 0 0   XYZ
    dof ry rz
    limits (-20.0 10.0)
           (0.0 20.0)
  end
  begin
     id 18 
     name lhumerus
     direction 1 -4.48985e-011 -4.2057e-027   
     length 4.79185   
     axis 180 -30 -90   XYZ
    dof rx ry rz
    limits (-60.0 90.0)
           (-90.0 90.0)
           (-90.0 90.0)
  end
  begin
     id 19
     name lradius
     direction 1 -4.48945e-011 1.15441e-028   
     length 2.65553   
     axis 180 -30 -90   XYZ
    dof rx
    limits (-10.0 170.0)
  end
  begin
     id 20
     name lwrist
     direction 1 -4.4899e-011 4.8894e-028   
     length 1.32777   
     axis -2.56392e-016 90 90   XYZ
    dof ry
    limits (-180.0 0.0)
 end
  begin
     id 21 
     name lhand
     direction 1 -4.48908e-011 9.7788e-028   
     length 0.743904   
     axis -6.23971e-016 90 90   XYZ
    dof rx rz
    limits (-90.0 90.0)
           (-45.0 45.0)
  end
  begin
     id 22 
     name lfingers
     direction 1 -4.49068e-011 1.95576e-027   
     length 0.599754   
     axis -1.24794e-015 90 90   XYZ
    dof rx
    limits (0.0 90.0)
  end
  begin
     id 23
     name lthumb
     direction 0.707107 -6.34883e-011 0.707107   
     length 0.861131   
     axis -90 45 2.85299e-015   XYZ
    dof rx rz
    limits (-45.0 45.0)
           (-45.0 45.0)
  end
  begin
     id 24 
     name rclavicle
     direction -0.957921 0.286916 0.00811568   
     length 3.06817  
     axis 0 0 0   XYZ 
    dof ry rz
    limits (-10.0 20.0)
           (-20.0 0.0)
  end
  begin
     id 25 
     name rhumerus
     direction -1 -4.48971e-011 -3.07942e-027  
     length 4.77254   
     axis 180 30 90   XYZ
    dof rx ry rz
    limits (-90.0 60.0)
           (-90.0 90.0)
           (-90.0 90.0)
  end
  begin
     id 26 
     name rradius
     direction -1 -4.48957e-011 -9.6815e-028   
     length 2.75995   
     axis 180 30 90   XYZ
    dof rx
    limits (-10.0 170.0)
  end
  begin
     id 27 
     name rwrist
     direction -1 -4.48979e-011 4.8894e-028   
     length 1.37997   
     axis -2.56392e-016 -90 -90   XYZ
    dof ry
    limits (-180.0 0.0)
  end
  begin
     id 28
     name rhand
     direction -1 -4.48906e-011 9.7788e-028   
     length 0.701619   
     axis -6.23971e-016 -90 -90   XYZ
    dof rx rz
    limits (-90.0 90.0)
           (-45.0 45.0)
  end
  begin
     id 29
     name rfingers
     direction -1 -4.49018e-011 1.95576e-027   
     length 0.565663   
     axis -1.24794e-015 -90 -90   XYZ
    dof rx
    limits (0.0 90.0)
  end
  begin
     id 30
     name rthumb
     direction -0.707107 -6.34881e-011 0.707107   
     length 0.812183   
     axis -90 -45 -2.85299e-015   XYZ
    dof rx rz
    limits (-45.0 45.0)
           (-45.0 45.0)
  end
:hierarchy
  begin
    root lhipjoint rhipjoint lowerback
    lhipjoint lfemur
    lfemur ltibia
    ltibia lfoot
    lfoot ltoes
    rhipjoint rfemur
    rfemur rtibia
    rtibia rfoot
    rfoot rtoes
    lowerback upperback
    upperback thorax
    thorax lowerneck lclavicle rclavicle
    lowerneck upperneck
    upperneck head
    lclavicle lhumerus
    lhumerus lradius
    lradius lwrist
    lwrist lhand lthumb
    lhand lfingers
    rclavicle rhumerus
    rhumerus rradius
    rradius rwrist
    rwrist rhand rthumb
    rhand rfingers
  end

#!OML:ASF F:\VICON\USERDATA\INSTALL\rory3\rory3.ASF
:FULLY-SPECIFIED
:DEGREES
765
root -1.61522 15.3 -1.77686 10.3855 27.4861 -3.20222
lowerback 20.3364 -0.404144 4.69395
upperback 3.8683 0.734337 2.35519
thorax -7.14283 0.306545 -0.323156
lowerneck -6.19785 -3.5666 -9.45923
upperneck 11.7928 -4.09774 3.04241
head 4.82613 -2.2267 2.22986
rclavicle -3.97569e-015 -2.22639e-014
rhumerus -29.3197 14.6037 -79.2989
rradius 29.6902
rwrist 1.94583
rhand -6.29674 12.8463
rfingers 7.12502
rthumb 19.5471 -16.1911
lclavicle -3.97569e-015 -2.22639e-014
lhumerus -30.8073 -10.9579 83.0358
lradius 38.755
lwrist 21.5657
lhand -6.74503 11.9792
lfingers 7.12502
lthumb 19.116 41.0598
rfemur -37.4945 -2.91149 27.197
rtibia 49.3574
rfoot -20.8773 -26.9591
rtoes 6.07375
lfemur -43.8597 -12.6676 -3.77134
ltibia 39.3535
lfoot -5.17154 -4.96916
ltoes -13.8235
766
root -1.64479 15.2924 -1.76784 10.4809 27.6298 -3.44762
lowerback 20.3181 -0.355226 4.51614
upperback 3.86892 0.747832 2.22741
thorax -7.13247 0.315472 -0.363963
lowerneck -6.33037 -3.44951 -9.32463
upperneck 11.8546 -3.99656 3.46077
head 4.86411 -2.14761 2.34391
rclavicle -2.5842e-015 -2.78299e-015
rhumerus -29.4658 14.7376 -79.5189
rradius 29.7559
rwrist 1.93063
rhand -6.28263 13.0771
rfingers 7.12502
rthumb 19.5606 -15.9589
lclavicle -2.5842e-015 -2.78299e-015
lhumerus -30.7491 -10.8752 82.7257
lradius 38.7032
lwrist 21.4362
lhand -6.76113 11.9834
lfingers 7.12502
lthumb 19.1005 41.0655
rfemur -37.7551 -3.06686 27.6162
rtibia 49.3354
rfoot -20.8405 -26.7838
rtoes 6.23053
lfemur -44.2604 -12.6278 -3.32189
ltibia 39.5169
lfoot -5.22929 -5.00098
ltoes -14.3192
767
root -1.67514 15.2843 -1.75969 10.4713 27.7933 -3.85166
lowerback 20.3653 -0.339066 4.39545
upperback 3.86538 0.74509 2.20912
thorax -7.16303 0.31592 -0.314623
lowerneck -6.42208 -3.32724 -9.17228
upperneck 11.8234 -3.86891 3.67713
head 4.86107 -2.06515 2.39457
rclavicle 4.07509e-014 5.00937e-014
rhumerus -29.5251 14.6596 -79.591
rradius 29.7639
rwrist 2.32598
rhand -6.14401 12.8906
rfingers 7.12502
rthumb 19.6939 -16.1318
lclavicle 4.07509e-014 5.00937e-014
lhumerus -30.6766 -10.6448 82.4596
lradius 38.5789
lwrist 21.3144
lhand -6.6063 11.8196
lfingers 7.12502
lthumb 19.2494 40.8869
rfemur -37.9415 -3.25076 28.2084
rtibia 49.2995
rfoot -20.6583 -26.6392
rtoes 5.97949
lfemur -44.6351 -12.58 -2.70583
ltibia 39.6924
lfoot -5.21035 -5.04209
ltoes -13.8171
768
root -1.70506 15.2793 -1.75275 10.5521 27.9349 -4.09949
lowerback 20.4178 -0.312839 4.21627
upperback 3.85256 0.736297 2.1103
thorax -7.20634 0.313463 -0.317554
lowerneck -6.55425 -3.24294 -9.09465
upperneck 11.8135 -3.79088 3.97553
head 4.87763 -2.00523 2.47904
rclavicle 1.78906e-014 -4.09496e-014
rhumerus -29.6628 14.7113 -79.7735
rradius 29.8042
rwrist 2.5588
rhand -6.13871 12.6907
rfingers 7.12502
rthumb 19.699 -16.3311
lclavicle 1.78906e-014 -4.09496e-014
lhumerus -30.6051 -10.4885 82.1636
lradius 38.4742
lwrist 21.1886
lhand -6.485 11.7434
lfingers 7.12502
lthumb 19.3661 40.7991
rfemur -38.1551 -3.39932 28.6303
rtibia 49.2748
rfoot -20.5715 -26.5398
rtoes 5.79402
lfemur -44.998 -12.5241 -2.2716
ltibia 39.8669
lfoot -5.283 -5.01136
ltoes -13.9036
769
root -1.7318 15.2757 -1.74466 10.6179 28.0772 -4.38337
lowerback 20.4045 -0.294028 4.13954
upperback 3.84793 0.730291 1.95707
thorax -7.20318 0.310462 -0.438047
lowerneck -6.65542 -3.1543 -8.97592
upperneck 11.8228 -3.732 4.40622
head 4.89708 -1.94542 2.59765
rclavicle 5.18828e-014 2.46493e-014
rhumerus -29.8918 15.0346 -80.0696
rradius 29.9596
rwrist 2.39913
rhand -6.1644 12.7515
rfingers 7.12502
rthumb 19.6743 -16.2729
lclavicle 5.18828e-014 2.46493e-014
lhumerus -30.5848 -10.4248 81.8221
lradius 38.4712
lwrist 21.0833
lhand -6.41822 11.7243
lfingers 7.12502
lthumb 19.4303 40.7735
rfemur -38.3702 -3.57539 29.0692
rtibia 49.235
rfoot -20.8207 -26.3419
rtoes 6.19691
lfemur -45.3471 -12.4923 -1.79147
ltibia 40.0336
lfoot -5.29459 -5.06613
ltoes -13.7462
770
root -1.75744 15.2699 -1.73433 10.6581 28.2561 -4.71817
lowerback 20.2741 -0.30155 4.07149
upperback 3.91338 0.688728 1.86694
thorax -7.06355 0.294295 -0.485882
lowerneck -6.85502 -3.03338 -8.88057
upperneck 11.8701 -3.61359 4.79044
head 4.94042 -1.85924 2.70866
rclavicle -2.8128e-014 -3.51849e-014
rhumerus -29.9934 15.5017 -80.2485
rradius 30.1378
rwrist 2.17776
rhand -6.19974 12.7799
rfingers 7.12502
rthumb 19.6403 -16.248
lclavicle -2.8128e-014 -3.51849e-014
lhumerus -30.5215 -10.2333 81.5193
lradius 38.5442
lwrist 20.9696
lhand -6.36304 11.7053
lfingers 7.12502
lthumb 19.4833 40.7491
rfemur -38.587 -3.78471 29.5864
rtibia 49.2006
rfoot -20.7976 -26.2909
rtoes 5.90259
lfemur -45.6944 -12.4786 -1.26072
ltibia 40.1773
lfoot -5.31318 -5.13185
ltoes -14.0065
771
root -1.78491 15.2633 -1.72321 10.7673 28.3818 -4.93296
lowerback 20.1734 -0.263459 3.81561
upperback 3.96292 0.670352 1.78391
thorax -6.95893 0.292105 -0.425342
lowerneck -7.07699 -2.92654 -8.88419
upperneck 11.9311 -3.50988 5.23923
head 4.99547 -1.77995 2.85536
rclavicle 7.85199e-015 2.74323e-014
rhumerus -30.0631 15.9081 -80.3973
rradius 30.2434
rwrist 1.9691
rhand -6.53192 12.6271
rfingers 7.12502
rthumb 19.321 -16.4331
lclavicle 7.85199e-015 2.74323e-014
lhumerus -30.4541 -10.1001 81.2659
lradius 38.5715
lwrist 20.9299
lhand -6.37679 11.6027
lfingers 7.12502
lthumb 19.4701 40.6479
rfemur -38.826 -3.96384 29.9956
rtibia 49.1678
rfoot -20.6376 -26.3038
rtoes 5.44247
lfemur -46.0364 -12.4572 -0.842685
ltibia 40.3087
lfoot -5.30845 -5.0735
ltoes -14.1038
772
root -1.81346 15.2574 -1.71295 10.7804 28.5055 -5.23425
lowerback 20.237 -0.224317 3.61956
upperback 3.94768 0.678987 1.72362
thorax -7.0108 0.298545 -0.381384
lowerneck -7.19825 -2.81994 -8.91171
upperneck 11.9655 -3.41202 5.68795
head 5.02577 -1.70503 3.00717
rclavicle 1.66979e-014 8.64713e-015
rhumerus -30.2006 16.0068 -80.444
rradius 30.2897
rwrist 2.1795
rhand -6.74148 12.593
rfingers 7.12502
rthumb 19.1194 -16.4872
lclavicle 1.66979e-014 8.64713e-015
lhumerus -30.4745 -9.85613 81.0056
lradius 38.5422
lwrist 20.6835
lhand -6.32784 11.6004
lfingers 7.12502
lthumb 19.5172 40.6408
rfemur -38.9965 -4.11606 30.4733
rtibia 49.1452
rfoot -20.8523 -26.0905
rtoes 5.77303
lfemur -46.3246 -12.3798 -0.375755
ltibia 40.428
lfoot -5.32986 -5.04269
ltoes -14.4767
773
root -1.84222 15.2532 -1.70332 10.7863 28.6177 -5.50784
lowerback 20.3001 -0.188178 3.34694
upperback 3.98377 0.667123 1.67429
thorax -7.00831 0.298366 -0.276887
lowerneck -7.37497 -2.67847 -8.8096
upperneck 11.8797 -3.26198 6.02681
head 5.02003 -1.60391 3.10607
rclavicle 8.51668e-015 -1.15544e-015
rhumerus -30.2261 16.0761 -80.3968
rradius 30.3896
rwrist 2.55539
rhand -6.63658 12.5659
rfingers 7.12502
rthumb 19.2203 -16.5044
lclavicle 8.51668e-015 -1.15544e-015
lhumerus -30.3716 -9.30258 80.6615
lradius 38.3933
lwrist 20.2278
lhand -6.10674 11.442
lfingers 7.12502
lthumb 19.7297 40.4607
rfemur -39.1405 -4.20157 30.9037
rtibia 49.1157
rfoot -21.3183 -25.8894
rtoes 6.38417
lfemur -46.5732 -12.2985 0.0623019
ltibia 40.5132
lfoot -5.4096 -5.03295
ltoes -15.0025
774
root -1.87082 15.2487 -1.69219 10.8021 28.7238 -5.77965
lowerback 20.3378 -0.152933 3.07371
upperback 4.04113 0.649676 1.59626
thorax -6.96885 0.295893 -0.201435
lowerneck -7.62683 -2.541 -8.61745
upperneck 11.8118 -3.12049 6.34343
head 5.03117 -1.50319 3.18221
rclavicle -2.41772e-014 1.2424e-015
rhumerus -30.216 16.305 -80.4783
rradius 30.4949
rwrist 2.51608
rhand -6.43206 12.4898
rfingers 7.12502
rthumb 19.417 -16.5607
lclavicle -2.41772e-014 1.2424e-015
lhumerus -30.29 -8.92685 80.2824
lradius 38.4264
lwrist 20.0779
lhand -5.90735 11.3659
lfingers 7.12502
lthumb 19.9214 40.3648
rfemur -39.2849 -4.2659 31.3297
rtibia 49.0633
rfoot -21.7509 -25.7276
rtoes 7.19525
lfemur -46.8198 -12.2441 0.517101
ltibia 40.5819
lfoot -5.4921 -5.03292
ltoes -15.4377
775
root -1.89815 15.2465 -1.68059 10.7821 28.8929 -6.09428
lowerback 20.3786 -0.161844 2.90188
upperback 4.06707 0.597794 1.52781
thorax -6.96471 0.274107 -0.164327
lowerneck -7.76812 -2.40022 -8.55044
upperneck 11.7621 -2.9765 6.72588
head 5.03174 -1.40416 3.30115
rclavicle 5.26779e-015 -8.94531e-016
rhumerus -30.3099 16.6226 -80.6604
rradius 30.568
rwrist 2.35399
rhand -6.44862 12.3981
rfingers 7.12502
rthumb 19.4011 -16.654
lclavicle 5.26779e-015 -8.94531e-016
lhumerus -30.3107 -8.58942 79.9382
lradius 38.5748
lwrist 19.9155
lhand -5.79659 11.4282
lfingers 7.12502
lthumb 20.0279 40.416
rfemur -39.395 -4.42406 31.8162
rtibia 48.9688
rfoot -21.7464 -25.6632
rtoes 6.94683
lfemur -47.0656 -12.2177 1.00062
ltibia 40.644
lfoot -5.49814 -5.02698
ltoes -15.4048
776
root -1.92481 15.2437 -1.67055 10.8707 29.0809 -6.33225
lowerback 20.3743 -0.1564 2.71726
upperback 4.04701 0.556659 1.41383
thorax -6.98582 0.256403 -0.171583
lowerneck -7.84803 -2.30988 -8.53091
upperneck 11.7036 -2.90899 7.18938
head 5.02674 -1.34032 3.44875
rclavicle 6.76862e-014 -5.92378e-014
rhumerus -30.4778 16.891 -80.8945
rradius 30.6034
rwrist 2.1756
rhand -6.57187 12.4481
rfingers 7.12502
rthumb 19.2825 -16.6159
lclavicle 6.76862e-014 -5.92378e-014
lhumerus -30.2132 -8.05487 79.5298
lradius 38.4681
lwrist 19.3841
lhand -5.6251 11.4477
lfingers 7.12502
lthumb 20.1927 40.4182
rfemur -39.5822 -4.61063 32.2453
rtibia 48.8488
rfoot -21.659 -25.6485
rtoes 6.42157
lfemur -47.3959 -12.1917 1.43165
ltibia 40.7051
lfoot -5.49404 -5.04832
ltoes -15.3635
777
root -1.9518 15.2389 -1.66022 10.8878 29.2195 -6.58477
lowerback 20.4931 -0.117152 2.54363
upperback 4.01274 0.565889 1.29022
thorax -7.08636 0.261734 -0.208794
lowerneck -7.81071 -2.25295 -8.42667
upperneck 11.5295 -2.89351 7.5937
head 4.96851 -1.30398 3.55978
rclavicle -1.55052e-014 -4.31363e-014
rhumerus -30.6278 17.1732 -81.0747
rradius 30.6641
rwrist 1.87083
rhand -6.345 12.3975
rfingers 7.12502
rthumb 19.5007 -16.6446
lclavicle -1.55052e-014 -4.31363e-014
lhumerus -30.0686 -7.3279 79.0934
lradius 38.2181
lwrist 18.686
lhand -5.45972 11.2899
lfingers 7.12502
lthumb 20.3517 40.2435
rfemur -39.6899 -4.74064 32.6729
rtibia 48.6947
rfoot -21.1983 -25.7027
rtoes 5.554
lfemur -47.6414 -12.1343 1.84004
ltibia 40.7745
lfoot -5.49932 -5.07595
ltoes -15.543
778
root -1.97807 15.2344 -1.65003 10.9209 29.3395 -6.79022
lowerback 20.6027 -0.0706077 2.34213
upperback 3.98648 0.575133 1.13937
thorax -7.17336 0.267722 -0.259683
lowerneck -7.73769 -2.1898 -8.24051
upperneck 11.2909 -2.87275 7.95576
head 4.88249 -1.26558 3.6437
rclavicle 5.4467e-014 3.65764e-014
rhumerus -30.6838 17.4292 -81.2456
rradius 30.615
rwrist 1.52562
rhand -5.92352 12.4534
rfingers 7.12502
rthumb 19.9059 -16.5471
lclavicle 5.4467e-014 3.65764e-014
lhumerus -30.0105 -7.18218 78.7493
lradius 38.0749
lwrist 18.5459
lhand -5.52446 11.2039
lfingers 7.12502
lthumb 20.2894 40.1641
rfemur -39.8039 -4.89521 33.0723
rtibia 48.5378
rfoot -20.5244 -25.8591
rtoes 4.19013
lfemur -47.8693 -12.1174 2.22548
ltibia 40.8407
lfoot -5.4473 -5.08797
ltoes -14.7572
